<svg width="40" height="41" viewBox="0 0 40 41" fill="none" xmlns="http://www.w3.org/2000/svg">
<g filter="url(#filter0_d_213_4631)">
<path d="M28.3082 19.7603C27.6957 20.3582 27.3457 21.2187 27.4332 22.1374C27.5645 23.7124 29.0082 24.8645 30.5832 24.8645H33.3541V26.5999C33.3541 29.6187 30.8895 32.0833 27.8707 32.0833H11.1291C8.11034 32.0833 5.64575 29.6187 5.64575 26.5999V16.7853C5.64575 13.7666 8.11034 11.302 11.1291 11.302H27.8707C30.8895 11.302 33.3541 13.7666 33.3541 16.7853V18.8854H30.4082C29.5916 18.8854 28.8478 19.2062 28.3082 19.7603Z" stroke="#3DECBE" stroke-width="1.5" stroke-linecap="round" stroke-linejoin="round"/>
<path opacity="0.4" d="M5.64575 18.0979V11.4334C5.64575 9.69797 6.71034 8.15208 8.32909 7.53958L19.9083 3.16458C21.7166 2.47916 23.6562 3.82087 23.6562 5.76045V11.3021" stroke="#3DECBE" stroke-width="1.5" stroke-linecap="round" stroke-linejoin="round"/>
<path d="M34.8999 20.3729V23.3772C34.8999 24.1793 34.2582 24.8355 33.4416 24.8646H30.5832C29.0082 24.8646 27.5645 23.7126 27.4332 22.1376C27.3457 21.2188 27.6957 20.3584 28.3082 19.7605C28.8478 19.2063 29.5916 18.8855 30.4082 18.8855H33.4416C34.2582 18.9147 34.8999 19.5709 34.8999 20.3729Z" stroke="#3DECBE" stroke-width="1.5" stroke-linecap="round" stroke-linejoin="round"/>
<path opacity="0.4" d="M12.2083 17.5H22.4166" stroke="#3DECBE" stroke-width="1.5" stroke-linecap="round" stroke-linejoin="round"/>
</g>
<defs>
<filter id="filter0_d_213_4631" x="-2" y="0" width="43" height="43" filterUnits="userSpaceOnUse" color-interpolation-filters="sRGB">
<feFlood flood-opacity="0" result="BackgroundImageFix"/>
<feColorMatrix in="SourceAlpha" type="matrix" values="0 0 0 0 0 0 0 0 0 0 0 0 0 0 0 0 0 0 127 0" result="hardAlpha"/>
<feOffset dy="4"/>
<feGaussianBlur stdDeviation="2"/>
<feComposite in2="hardAlpha" operator="out"/>
<feColorMatrix type="matrix" values="0 0 0 0 0 0 0 0 0 0 0 0 0 0 0 0 0 0 0.25 0"/>
<feBlend mode="normal" in2="BackgroundImageFix" result="effect1_dropShadow_213_4631"/>
<feBlend mode="normal" in="SourceGraphic" in2="effect1_dropShadow_213_4631" result="shape"/>
</filter>
</defs>
</svg>
