<svg width="35" height="35" viewBox="0 0 35 35" fill="none" xmlns="http://www.w3.org/2000/svg">
<path d="M26.3082 19.7603C25.6957 20.3582 25.3457 21.2187 25.4332 22.1374C25.5645 23.7124 27.0082 24.8645 28.5832 24.8645H31.3541V26.5999C31.3541 29.6187 28.8895 32.0833 25.8707 32.0833H9.12908C6.11034 32.0833 3.64575 29.6187 3.64575 26.5999V16.7853C3.64575 13.7666 6.11034 11.302 9.12908 11.302H25.8707C28.8895 11.302 31.3541 13.7666 31.3541 16.7853V18.8854H28.4082C27.5916 18.8854 26.8478 19.2062 26.3082 19.7603Z" stroke="white" stroke-width="1.5" stroke-linecap="round" stroke-linejoin="round"/>
<path opacity="0.4" d="M3.64575 18.0979V11.4334C3.64575 9.69797 4.71034 8.15208 6.32909 7.53958L17.9083 3.16458C19.7166 2.47916 21.6562 3.82087 21.6562 5.76045V11.3021" stroke="white" stroke-width="1.5" stroke-linecap="round" stroke-linejoin="round"/>
<path d="M32.8999 20.3729V23.3772C32.8999 24.1793 32.2582 24.8355 31.4416 24.8646H28.5832C27.0082 24.8646 25.5645 23.7126 25.4332 22.1376C25.3457 21.2188 25.6957 20.3584 26.3082 19.7605C26.8478 19.2063 27.5916 18.8855 28.4082 18.8855H31.4416C32.2582 18.9147 32.8999 19.5709 32.8999 20.3729Z" stroke="white" stroke-width="1.5" stroke-linecap="round" stroke-linejoin="round"/>
<path opacity="0.4" d="M10.2083 17.5H20.4166" stroke="white" stroke-width="1.5" stroke-linecap="round" stroke-linejoin="round"/>
</svg>
