<svg width="35" height="35" viewBox="0 0 35 35" fill="none" xmlns="http://www.w3.org/2000/svg">
<g opacity="0.35">
<path d="M32.0833 8.75008V12.2792C32.0833 14.5834 30.6249 16.0417 28.3207 16.0417H23.3333V5.848C23.3333 4.22925 24.6604 2.91675 26.2791 2.91675C27.8687 2.93133 29.327 3.573 30.377 4.623C31.427 5.68758 32.0833 7.14591 32.0833 8.75008Z" stroke="white" stroke-width="1.5" stroke-miterlimit="10" stroke-linecap="round" stroke-linejoin="round"/>
<path d="M2.91675 10.2084V30.6251C2.91675 31.8355 4.28755 32.5209 5.25005 31.7917L7.74383 29.9251C8.32716 29.4876 9.14384 29.5459 9.66884 30.0709L12.0896 32.5063C12.6584 33.0751 13.5918 33.0751 14.1605 32.5063L16.6105 30.0563C17.1209 29.5459 17.9376 29.4876 18.5063 29.9251L21.0001 31.7917C21.9626 32.5063 23.3334 31.8209 23.3334 30.6251V5.83341C23.3334 4.22925 24.6459 2.91675 26.2501 2.91675H10.2084H8.75008C4.37508 2.91675 2.91675 5.52716 2.91675 8.75008V10.2084Z" stroke="white" stroke-width="1.5" stroke-miterlimit="10" stroke-linecap="round" stroke-linejoin="round"/>
<path opacity="0.4" d="M8.75 13.125H17.5" stroke="white" stroke-width="1.5" stroke-linecap="round" stroke-linejoin="round"/>
<path opacity="0.4" d="M9.84375 18.9583H16.4063" stroke="white" stroke-width="1.5" stroke-linecap="round" stroke-linejoin="round"/>
</g>
</svg>
