<svg width="19" height="19" viewBox="0 0 19 19" fill="none" xmlns="http://www.w3.org/2000/svg">
<path d="M17.1746 14.2316C18.1111 13.691 18.4319 12.4936 17.8913 11.5577C17.3506 10.621 16.1535 10.3001 15.2168 10.8411C14.2806 11.382 13.9598 12.5791 14.5004 13.5153C15.0408 14.4514 16.2382 14.7725 17.1746 14.2316Z" fill="white"/>
<path d="M16.0343 3.64447C16.4733 4.11813 16.8669 4.6473 17.2031 5.22971C17.5397 5.81269 17.8016 6.418 17.9919 7.03532L14.4348 9.08907L11.3599 10.8641L10.6226 11.2896L10.3622 10.8389L8.66476 7.89906L12.4769 5.69764C10.9738 4.59894 8.90402 4.42178 7.18799 5.41288C4.86866 6.7517 4.07389 9.71784 5.413 12.0372C6.60071 14.0938 9.06744 14.9512 11.2282 14.1854C11.5041 14.0875 11.7749 13.9633 12.0373 13.8119L12.0685 13.7936L14.0261 17.1844L13.9949 17.2024C13.7356 17.3521 13.4717 17.4872 13.2041 17.6077C9.15072 19.4345 4.29283 17.9271 2.02215 13.9942C-0.397926 9.80255 1.03849 4.44239 5.23041 2.02174C8.83963 -0.0620538 13.3152 0.712965 16.0343 3.64447Z" fill="white"/>
</svg>
