<svg width="25" height="25" viewBox="0 0 25 25" fill="none" xmlns="http://www.w3.org/2000/svg">
<path d="M11.5 0.57735C12.1188 0.220084 12.8812 0.220085 13.5 0.57735L22.3253 5.67265C22.9441 6.02992 23.3253 6.69017 23.3253 7.4047V17.5953C23.3253 18.3098 22.9441 18.9701 22.3253 19.3274L13.5 24.4227C12.8812 24.7799 12.1188 24.7799 11.5 24.4226L2.67468 19.3273C2.05588 18.9701 1.67468 18.3098 1.67468 17.5953V7.4047C1.67468 6.69017 2.05588 6.02992 2.67468 5.67265L11.5 0.57735Z" fill="#F01010"/>
<path d="M8.97 14.083H7.71V16H6.711V9.835H8.97C10.368 9.835 11.067 10.525 11.067 11.905C11.067 12.613 10.89 13.153 10.536 13.525C10.188 13.897 9.666 14.083 8.97 14.083ZM7.71 13.219H8.961C9.681 13.219 10.041 12.781 10.041 11.905C10.041 11.485 9.954 11.179 9.78 10.987C9.606 10.795 9.333 10.699 8.961 10.699H7.71V13.219ZM12.0284 16V9.835H13.7654L15.1424 14.65L16.5194 9.835H18.2654V16H17.2574V10.942H17.1224L15.6644 15.748H14.6204L13.1624 10.942H13.0274V16H12.0284Z" fill="white"/>
</svg>
