<svg width="16" height="16" viewBox="0 0 16 16" fill="none" xmlns="http://www.w3.org/2000/svg">
<path d="M7.96202 0C9.21022 0 10.3979 0.290417 11.4636 0.809917C11.6307 0.886482 11.7989 0.978142 11.9655 1.06987L11.2348 1.7272L10.1393 0.580901L8.25162 2.2618L7.14003 1.05437L3.66884 4.18735L5.89123 6.6479L5.02363 7.41185L7.21623 9.87234L6.34856 10.636L9.48489 14.1357L11.3411 12.424L12.9556 14.2584C12.6356 14.503 12.2855 14.748 11.9053 14.9615C10.7052 15.6436 9.35267 16.0012 7.97736 16C3.57717 16 4.95299e-05 12.4094 4.95299e-05 7.99316C-0.0153504 3.60679 3.56237 0 7.96202 0ZM6.50016 7.50379L8.40322 5.79209L10.1087 7.70234L8.20522 9.4139L6.50016 7.50379ZM7.85549 10.8049L9.74309 9.07799L11.4635 10.9881L9.56035 12.6999L7.85549 10.8049ZM5.14603 4.24875L7.04849 2.53705L8.75362 4.44723L6.85043 6.15893L5.14603 4.24875ZM8.63162 3.33147L10.0476 2.04788L11.3267 3.46909L9.91069 4.76791L8.63162 3.33147ZM11.1591 9.21521L12.5745 7.93149L13.8536 9.36767L12.4376 10.6522L11.1591 9.21521ZM12.4073 12.1038L13.8233 10.8199L15.1013 12.2412L13.6859 13.5398L12.4073 12.1038ZM12.9859 5.5016L13.9297 4.64572L14.7819 5.5936L13.8383 6.44915L12.9859 5.5016ZM11.768 2.67434L12.7119 1.80349L13.5647 2.76613L12.6202 3.62188L11.768 2.67434ZM14.1885 8.32907L15.1323 7.47325L16 8.4208L15.0413 9.27641L14.1885 8.32907ZM9.94115 6.20476L11.3571 4.92104L12.6357 6.34198L11.2203 7.62598L9.94115 6.20476Z" fill="white"/>
</svg>
